<svg xmlns="http://www.w3.org/2000/svg" width="512" height="512" style="shape-rendering:geometricPrecision;text-rendering:geometricPrecision;image-rendering:optimizeQuality;fill-rule:evenodd;clip-rule:evenodd"><path style="opacity:1" fill="#a8092d" d="M433.5 108.5c-11 1.333-22 1.333-33 0a145.553 145.553 0 0 1 33 0Z"/><path style="opacity:1" fill="#af0a2f" d="M400.5 108.5c11 1.333 22 1.333 33 0a20.69 20.69 0 0 1 5 1c-6.633 1.33-13.633 1.997-21 2-7.367-.003-14.367-.67-21-2l4-1Z"/><path style="opacity:1" fill="#a8092d" d="M396.5 109.5c6.633 1.33 13.633 1.997 21 2 7.367-.003 14.367-.67 21-2 4.034.005 8.034.338 12 1a168.522 168.522 0 0 1-6 2l4 1c1.833-.085 3.166-.752 4-2 3.622-.178 6.956.489 10 2 5.422.147 10.422 1.48 15 4 .617.111 1.117.444 1.5 1a484.008 484.008 0 0 1 0 44c-1.073.78-2.24.613-3.5-.5-6.37-5.843-13.37-10.676-21-14.5 2.205-.346 2.372-1.013.5-2-1.03.336-1.53 1.003-1.5 2-3.239-.962-6.239-2.295-9-4 2.205-.346 2.372-1.013.5-2-1.03.336-1.53 1.003-1.5 2a184.197 184.197 0 0 0-13-3 71.254 71.254 0 0 1 4-2l-3-1c-1.53.14-2.53.807-3 2a114.677 114.677 0 0 0-39 2c-.64-1.832-1.64-2.165-3-1 .457.798 1.124 1.131 2 1-2.761 1.705-5.761 3.038-9 4-.448-1.965-1.448-2.298-3-1 .457.798 1.124 1.131 2 1-8.805 4.803-15.139 11.803-19 21-.139-1.837-.806-2.17-2-1 .355 1.022 1.022 1.689 2 2-1.71 8.232-1.043 16.232 2 24-1.965.448-2.298 1.448-1 3 .798-.457 1.131-1.124 1-2a178.532 178.532 0 0 0 15 17c-2.205.346-2.372 1.013-.5 2 1.03-.336 1.53-1.003 1.5-2a21.614 21.614 0 0 1 5 4c-2.205.346-2.372 1.013-.5 2 1.03-.336 1.53-1.003 1.5-2a62.722 62.722 0 0 1 9 6c-2.205.346-2.372 1.013-.5 2 1.03-.336 1.53-1.003 1.5-2 1.21.432 2.21 1.099 3 2-2.205.346-2.372 1.013-.5 2 1.03-.336 1.53-1.003 1.5-2a86.664 86.664 0 0 1 11 6c-2.205.346-2.372 1.013-.5 2 1.03-.336 1.53-1.003 1.5-2 1.21.432 2.21 1.099 3 2-2.205.346-2.372 1.013-.5 2 1.03-.336 1.53-1.003 1.5-2 1.653.16 2.986.826 4 2a133.629 133.629 0 0 1 17 8c-2.205.346-2.372 1.013-.5 2 1.03-.336 1.53-1.003 1.5-2 1.21.432 2.21 1.099 3 2-2.205.346-2.372 1.013-.5 2 1.03-.336 1.53-1.003 1.5-2 1.527-.073 2.527.594 3 2-2.205.346-2.372 1.013-.5 2 1.03-.336 1.53-1.003 1.5-2 1.527-.073 2.527.594 3 2-2.205.346-2.372 1.013-.5 2 1.03-.336 1.53-1.003 1.5-2 1.527-.073 2.527.594 3 2-2.205.346-2.372 1.013-.5 2 1.03-.336 1.53-1.003 1.5-2 1.527-.073 2.527.594 3 2-2.205.346-2.372 1.013-.5 2 1.03-.336 1.53-1.003 1.5-2a49.698 49.698 0 0 1 10 6c10.933 5.939 19.933 13.939 27 24-1.276.886-1.276 1.886 0 3 .798-.457 1.131-1.124 1-2 6.8 8.721 10.466 18.721 11 30a31.147 31.147 0 0 1-2-2l-1 5c.056 2.14.723 3.806 2 5a49.369 49.369 0 0 1-1 11 112.33 112.33 0 0 1-2-5l-1 3c-.16 1.855.507 3.188 2 4 .098 2.053-.569 3.72-2 5-.346-2.205-1.013-2.372-2-.5.336 1.03 1.003 1.53 2 1.5-1.907 5.484-4.573 10.484-8 15 .131-.876-.202-1.543-1-2-1.276 1.114-1.276 2.114 0 3-.933 2.87-2.6 5.204-5 7-2.551.168-3.218 1.168-2 3-11.844 13.093-26.177 22.426-43 28-3.297 2.101-6.963 3.435-11 4-1.251-2.061-2.918-2.394-5-1a44.093 44.093 0 0 1 3 2 19.22 19.22 0 0 1-6 1c-.812-1.493-2.145-2.16-4-2l-3 1a71.254 71.254 0 0 1 4 2 44.866 44.866 0 0 1-10 1c-6.633-1.33-13.633-1.997-21-2l-21 .5c-.556.383-.889.883-1 1.5a72.032 72.032 0 0 1-11-1 168.522 168.522 0 0 1 6-2l-4-1c-1.833.085-3.166.752-4 2a138.5 138.5 0 0 1-24-4.5c-4.755-1.185-9.088-3.018-13-5.5 2.061-1.251 2.394-2.918 1-5-.929 1.189-1.262 2.522-1 4-1.54-2.338-2.206-5.005-2-8-1.424-2.015-2.09-4.348-2-7 1.493-.812 2.16-2.145 2-4l-1-3a112.33 112.33 0 0 1-2 5 276.551 276.551 0 0 1-5-25c2.412-.194 3.412-1.527 3-4 6.703 4.347 13.37 8.68 20 13-2.205.346-2.372 1.013-.5 2 1.03-.336 1.53-1.003 1.5-2 1.21.432 2.21 1.099 3 2-2.205.346-2.372 1.013-.5 2 1.03-.336 1.53-1.003 1.5-2 1.21.432 2.21 1.099 3 2-2.205.346-2.372 1.013-.5 2 1.03-.336 1.53-1.003 1.5-2 1.495.489 2.829 1.155 4 2 5.343 1.674 10.676 3.34 16 5a44.093 44.093 0 0 1-3 2c2.082 1.394 3.749 1.061 5-1a20.69 20.69 0 0 1 5 1 31.147 31.147 0 0 1-2 2c2.082 1.394 3.749 1.061 5-1 2.361.174 4.694.507 7 1a71.254 71.254 0 0 1-4 2l3 1c1.53-.14 2.53-.807 3-2a134.927 134.927 0 0 0 31 0c.812 1.493 2.145 2.16 4 2l3-1a71.254 71.254 0 0 1-4-2 83 83 0 0 0 17-5c11.147-4.81 19.813-12.477 26-23 .346 2.205 1.013 2.372 2 .5-.336-1.03-1.003-1.53-2-1.5.296-1.903.963-3.57 2-5-.262 1.478.071 2.811 1 4 1.394-2.082 1.061-3.749-1-5a75.478 75.478 0 0 0-2-22c-.845-1.171-1.511-2.505-2-4 1.965-.448 2.298-1.448 1-3-.798.457-1.131 1.124-1 2-6.881-9.269-15.214-16.936-25-23 2.205-.346 2.372-1.013.5-2-1.03.336-1.53 1.003-1.5 2a519.757 519.757 0 0 0-27-14c2.205-.346 2.372-1.013.5-2-1.03.336-1.53 1.003-1.5 2-1.21-.432-2.21-1.099-3-2 2.205-.346 2.372-1.013.5-2-1.03.336-1.53 1.003-1.5 2a133.629 133.629 0 0 1-17-8c2.205-.346 2.372-1.013.5-2-1.03.336-1.53 1.003-1.5 2-1.21-.432-2.21-1.099-3-2 2.205-.346 2.372-1.013.5-2-1.03.336-1.53 1.003-1.5 2-1.21-.432-2.21-1.099-3-2 2.205-.346 2.372-1.013.5-2-1.03.336-1.53 1.003-1.5 2-1.21-.432-2.21-1.099-3-2 2.205-.346 2.372-1.013.5-2-1.03.336-1.53 1.003-1.5 2-1.21-.432-2.21-1.099-3-2 2.205-.346 2.372-1.013.5-2-1.03.336-1.53 1.003-1.5 2-12.812-6.739-24.145-15.405-34-26 .825-1.625.492-3.292-1-5-.798.457-1.131 1.124-1 2-1.75-1.159-2.75-2.826-3-5 1.276-.886 1.276-1.886 0-3-.798.457-1.131 1.124-1 2-.901-.79-1.568-1.79-2-3 1.965-.448 2.298-1.448 1-3-.798.457-1.131 1.124-1 2-.901-.79-1.568-1.79-2-3 1.965-.448 2.298-1.448 1-3-.683.363-1.35.696-2 1l-1-4c2.061-1.251 2.394-2.918 1-5a44.093 44.093 0 0 1-2 3 130.845 130.845 0 0 1-2-29 4379.31 4379.31 0 0 1 2 20l1-11c-.011-4.065-.678-7.732-2-11-.206-2.995.46-5.662 2-8-.241-2.398.426-4.398 2-6 .346 2.205 1.013 2.372 2 .5-.336-1.03-1.003-1.53-2-1.5.432-1.21 1.099-2.21 2-3 .346 2.205 1.013 2.372 2 .5-.336-1.03-1.003-1.53-2-1.5 1.945-4.236 4.612-7.903 8-11 2.667-.667 4.333-2.333 5-5 12.188-11.262 26.521-18.595 43-22 1.251 2.061 2.918 2.394 5 1-1.189-.929-2.522-1.262-4-1 7.001-2.465 14.334-3.798 22-4Z"/><path style="opacity:1" fill="#af0a2f" d="M450.5 110.5c.992-.172 1.658.162 2 1-.834 1.248-2.167 1.915-4 2l-4-1a168.522 168.522 0 0 0 6-2ZM384.5 111.5a9.86 9.86 0 0 1 6 1l-3 1c-1.53-.14-2.53-.807-3-2ZM373.5 113.5h1c1.478-.262 2.811.071 4 1-2.082 1.394-3.749 1.061-5-1ZM462.5 113.5c-.47 1.193-1.47 1.86-3 2l-3-1a9.86 9.86 0 0 1 6-1Z"/><path style="opacity:1" fill="#a8092d" d="M83.5 119.5c-.64-1.832-1.64-2.165-3-1 .457.798 1.124 1.131 2 1-7.466 7.378-11.466 16.378-12 27a168.724 168.724 0 0 1-2-6l-1 4c.085 1.833.752 3.166 2 4v144c-1.316 2.587-1.983 5.587-2 9l1 9a809.596 809.596 0 0 1 2-11c.416 4.993.75 9.993 1 15-1.194.47-1.86 1.47-2 3l1 3a70.915 70.915 0 0 1 2-4 183.753 183.753 0 0 0 3 13c-1.15.291-1.816 1.124-2 2.5l1 2.5c.929-1.189 1.262-2.522 1-4 1.704 2.756 3.037 5.756 4 9a904.378 904.378 0 0 1 4 6c-1.965.448-2.298 1.448-1 3 .797-.457 1.13-1.124 1-2a209.323 209.323 0 0 0 12 12.5 84.225 84.225 0 0 0 15 8.5c-2.205.346-2.372 1.013-.5 2 1.03-.336 1.53-1.003 1.5-2a98.264 98.264 0 0 0 18 3 246.697 246.697 0 0 1-7 2c10 1.333 20 1.333 30 0a345.94 345.94 0 0 1-8-2c27.85-2.232 48.183-15.566 61-40 .346 2.205 1.013 2.372 2 .5-.336-1.03-1.003-1.53-2-1.5a52.56 52.56 0 0 1 1.5-7c.5-58.666.667-117.332.5-176 1.193-.47 1.86-1.47 2-3l-1-3a71.254 71.254 0 0 1-2 4 51.569 51.569 0 0 1-1-7c2.061-1.251 2.394-2.918 1-5a44.093 44.093 0 0 1-2 3l-1-4c1.965-.448 2.298-1.448 1-3-.798.457-1.131 1.124-1 2a49.27 49.27 0 0 0-13-14c24.324-1 48.658-1.333 73-1 .321 1.548 1.321 2.215 3 2-5.885 3.889-9.885 9.223-12 16a44.093 44.093 0 0 1-2-3c-1.394 2.082-1.061 3.749 1 5-.221 2.567-.888 4.901-2 7a1636.26 1636.26 0 0 0-1 46 29509.15 29509.15 0 0 1 1.5 174c.456 10.562 4.289 19.562 11.5 27-1.256-.039-2.256.461-3 1.5-16.33.5-32.663.667-49 .5a133.155 133.155 0 0 0-1-23 157.135 157.135 0 0 0-1 25h55v-3c1.208.734 2.541 1.067 4 1v3h-60c.166-8.007 0-16.007-.5-24a3.647 3.647 0 0 0-1.5-1c-6.791 7.216-14.457 13.216-23 18-.448-1.965-1.448-2.298-3-1 .457.798 1.124 1.131 2 1-.79.901-1.79 1.568-3 2-.448-1.965-1.448-2.298-3-1 .457.798 1.124 1.131 2 1-2.87 2.294-6.203 3.628-10 4-6.53 3.248-13.53 5.248-21 6-.111-.617-.444-1.117-1-1.5a24.551 24.551 0 0 0-12 .5c3.477.667 6.811 1.334 10 2a187.626 187.626 0 0 1-38 0 624.355 624.355 0 0 1 10-2l-6-1c-2.452.039-4.452.706-6 2-3.622.178-6.956-.489-10-2a9.86 9.86 0 0 0 6-1l-3-1c-1.855-.16-3.188.507-4 2-15.894-3.443-29.56-10.776-41-22 0-2-1-3-3-3a24.187 24.187 0 0 1-7-9c1.276-.886 1.276-1.886 0-3-.797.457-1.13 1.124-1 2-3.427-4.516-6.093-9.516-8-15 1.965-.448 2.298-1.448 1-3-.797.457-1.13 1.124-1 2-1.431-1.28-2.098-2.947-2-5 2.061-1.251 2.394-2.918 1-5a44.093 44.093 0 0 1-2 3 93.522 93.522 0 0 1-3-24c.617-.111 1.117-.444 1.5-1a4704.63 4704.63 0 0 0-.5-168c-.667 36.498-1.333 72.831-2 109 .443-38.025-.057-76.025-1.5-114-1.412-11.01-6.912-19.176-16.5-24.5a392.289 392.289 0 0 1 39.5-1.5l38.5 1c-.688 1.355-1.688 2.355-3 3Z"/><path style="opacity:1" fill="#ae092f" d="M263.5 115.5c1.788-.285 3.455.048 5 1-.457.798-1.124 1.131-2 1-1.679.215-2.679-.452-3-2Z"/><path style="opacity:1" fill="#af0a2f" d="M368.5 115.5c1.837.139 2.17.806 1 2-.798-.457-1.131-1.124-1-2ZM466.5 115.5c1.478-.262 2.811.071 4 1l-2 1c-1.213-.247-1.88-.914-2-2ZM18.5 117.5a324.943 324.943 0 0 1 36 1l-18 1c-6.372-.004-12.372-.671-18-2ZM74.5 117.5c1.837.139 2.17.806 1 2-.797-.457-1.13-1.124-1-2ZM83.5 119.5h-1c-.876.131-1.543-.202-2-1 1.36-1.165 2.36-.832 3 1ZM362.5 117.5c1.837.139 2.17.806 1 2-.798-.457-1.131-1.124-1-2ZM477.5 117.5c-.105 5.891-1.105 6.225-3 1 .825-.886 1.825-1.219 3-1ZM356.5 119.5c1.837.139 2.17.806 1 2-.798-.457-1.131-1.124-1-2ZM475.5 126.5c1.837.139 2.17.806 1 2-.798-.457-1.131-1.124-1-2ZM203.5 131.5v-1c-.131-.876.202-1.543 1-2 1.298 1.552.965 2.552-1 3ZM23.5 130.5c1.837.139 2.17.806 1 2-.797-.457-1.13-1.124-1-2ZM254.5 133.5l-1 2c-2.061-1.251-2.394-2.918-1-5a44.093 44.093 0 0 0 2 3ZM205.5 137.5l-1-2a44.093 44.093 0 0 0 2-3c1.394 2.082 1.061 3.749-1 5ZM475.5 132.5c1.837.139 2.17.806 1 2-.798-.457-1.131-1.124-1-2ZM69.5 134.5c1.837.139 2.17.806 1 2-.797-.457-1.13-1.124-1-2ZM330.5 135.5c-.667 2.667-2.333 4.333-5 5 1.333-2 3-3.667 5-5ZM402.5 135.5c6.7-.33 13.366.003 20 1l-10 1c-3.739-.014-7.072-.68-10-2ZM25.5 136.5c1.086.12 1.753.787 2 2l-1 2c-.929-1.189-1.262-2.522-1-4ZM392.5 137.5c1.478-.262 2.811.071 4 1l-2 1c-1.213-.247-1.88-.914-2-2ZM430.5 140.5c-.992.172-1.658-.162-2-1 .47-1.193 1.47-1.86 3-2l3 1a71.254 71.254 0 0 0-4 2ZM251.5 142.5c-1.086-.12-1.753-.787-2-2l1-2c.929 1.189 1.262 2.522 1 4ZM475.5 138.5c1.086.12 1.753.787 2 2l-1 2c-.929-1.189-1.262-2.522-1-4ZM389.5 141.5h-1c-.876.131-1.543-.202-2-1 1.36-1.165 2.36-.832 3 1ZM438.5 139.5c1.478-.262 2.811.071 4 1l-2 1c-1.213-.247-1.88-.914-2-2ZM70.5 146.5c.172.992-.162 1.658-1 2-1.248-.834-1.915-2.167-2-4l1-4a168.724 168.724 0 0 0 2 6ZM207.5 146.5c-.838-.342-1.172-1.008-1-2a71.254 71.254 0 0 0 2-4l1 3c-.14 1.53-.807 2.53-2 3ZM380.5 141.5c1.837.139 2.17.806 1 2-.798-.457-1.131-1.124-1-2ZM444.5 143.5h-1c-.03-.997.47-1.664 1.5-2 1.872.987 1.705 1.654-.5 2ZM379.5 145.5h-1c-.876.131-1.543-.202-2-1 1.552-1.298 2.552-.965 3 1ZM450.5 143.5c1.837.139 2.17.806 1 2-.798-.457-1.131-1.124-1-2ZM454.5 147.5h-1c-.03-.997.47-1.664 1.5-2 1.872.987 1.705 1.654-.5 2ZM27.5 315.5a1037.724 1037.724 0 0 1-1-60c.667-36.169 1.333-72.502 2-109a4704.63 4704.63 0 0 1 .5 168c-.383.556-.883.889-1.5 1ZM247.5 150.5c1.333 29.993 2 60.326 2 91l-1 91c-1-60.663-1.333-121.33-1-182ZM317.5 151.5c.997-.03 1.664.47 2 1.5-.987 1.872-1.654 1.705-2-.5v-1ZM315.5 155.5c.997-.03 1.664.47 2 1.5-.987 1.872-1.654 1.705-2-.5v-1ZM209.5 158.5c1.294 1.548 1.961 3.548 2 6l-1 6a36.875 36.875 0 0 1-1-12ZM313.5 162.5c1.086.12 1.753.787 2 2l-1 2c-.929-1.189-1.262-2.522-1-4ZM359.5 166.5v1c-.978-.311-1.645-.978-2-2 1.194-1.17 1.861-.837 2 1ZM311.5 170.5c1.322 3.268 1.989 6.935 2 11l-1 11a4379.31 4379.31 0 0 0-2-20c-.172-.992.162-1.658 1-2ZM355.5 170.5c1.305 1.897 1.971 4.231 2 7l-1 7a49.87 49.87 0 0 1-1-14ZM209.5 184.5c1.333 21.656 2 43.656 2 66l-1 66c-1-43.995-1.333-87.995-1-132ZM357.5 188.5c1.837.139 2.17.806 1 2-.798-.457-1.131-1.124-1-2ZM361.5 191.5v1c.131.876-.202 1.543-1 2-1.298-1.552-.965-2.552 1-3ZM313.5 203.5l-1-2a44.093 44.093 0 0 0 2-3c1.394 2.082 1.061 3.749-1 5ZM315.5 209.5l-1-2c.65-.304 1.317-.637 2-1 1.298 1.552.965 2.552-1 3ZM376.5 209.5h1c.03.997-.47 1.664-1.5 2-1.872-.987-1.705-1.654.5-2ZM317.5 213.5v-1c-.131-.876.202-1.543 1-2 1.298 1.552.965 2.552-1 3ZM382.5 213.5h1c.03.997-.47 1.664-1.5 2-1.872-.987-1.705-1.654.5-2ZM320.5 217.5c-.667 0-1-.333-1-1-.131-.876.202-1.543 1-2 1.276 1.114 1.276 2.114 0 3ZM392.5 219.5h1c.03.997-.47 1.664-1.5 2-1.872-.987-1.705-1.654.5-2ZM325.5 225.5l-2-3c-.131-.876.202-1.543 1-2 1.492 1.708 1.825 3.375 1 5ZM396.5 221.5h1c.03.997-.47 1.664-1.5 2-1.872-.987-1.705-1.654.5-2ZM408.5 227.5h1c.03.997-.47 1.664-1.5 2-1.872-.987-1.705-1.654.5-2ZM412.5 229.5h1c.03.997-.47 1.664-1.5 2-1.872-.987-1.705-1.654.5-2ZM417.5 231.5c-.448 1.965-1.448 2.298-3 1 .825-.886 1.825-1.219 3-1ZM418.5 233.5c1.837.139 2.17.806 1 2-.798-.457-1.131-1.124-1-2ZM434.5 239.5h1c.03.997-.47 1.664-1.5 2-1.872-.987-1.705-1.654.5-2ZM438.5 241.5h1c.03.997-.47 1.664-1.5 2-1.872-.987-1.705-1.654.5-2ZM442.5 243.5h1c.03.997-.47 1.664-1.5 2-1.872-.987-1.705-1.654.5-2ZM446.5 245.5h1c.03.997-.47 1.664-1.5 2-1.872-.987-1.705-1.654.5-2ZM450.5 247.5h1c.03.997-.47 1.664-1.5 2-1.872-.987-1.705-1.654.5-2ZM360.5 251.5h-1c-.03-.997.47-1.664 1.5-2 1.872.987 1.705 1.654-.5 2ZM454.5 249.5h1c.03.997-.47 1.664-1.5 2-1.872-.987-1.705-1.654.5-2ZM364.5 253.5h-1c-.03-.997.47-1.664 1.5-2 1.872.987 1.705 1.654-.5 2ZM368.5 255.5h-1c-.03-.997.47-1.664 1.5-2 1.872.987 1.705 1.654-.5 2ZM372.5 257.5h-1c-.03-.997.47-1.664 1.5-2 1.872.987 1.705 1.654-.5 2ZM465.5 255.5c-.448 1.965-1.448 2.298-3 1 .825-.886 1.825-1.219 3-1ZM376.5 259.5h-1c-.03-.997.47-1.664 1.5-2 1.872.987 1.705 1.654-.5 2ZM390.5 263.5c1.837.139 2.17.806 1 2-.798-.457-1.131-1.124-1-2ZM394.5 267.5h-1c-.03-.997.47-1.664 1.5-2 1.872.987 1.705 1.654-.5 2ZM398.5 269.5h-1c-.03-.997.47-1.664 1.5-2 1.872.987 1.705 1.654-.5 2ZM492.5 279.5c.667 0 1 .333 1 1 .131.876-.202 1.543-1 2-1.276-1.114-1.276-2.114 0-3ZM426.5 283.5h-1c-.03-.997.47-1.664 1.5-2 1.872.987 1.705 1.654-.5 2ZM69.5 292.5a51.648 51.648 0 0 0 1 7 809.596 809.596 0 0 0-2 11l-1-9c.017-3.413.684-6.413 2-9ZM497.5 292.5c1.837.139 2.17.806 1 2-.798-.457-1.131-1.124-1-2ZM499.5 298.5c1.837.139 2.17.806 1 2-.798-.457-1.131-1.124-1-2ZM451.5 307.5v-1c-.131-.876.202-1.543 1-2 1.298 1.552.965 2.552-1 3ZM453.5 311.5c-.219-1.175.114-2.175 1-3 1.298 1.552.965 2.552-1 3ZM504.5 310.5c.306 2.885-.027 5.552-1 8-1.277-1.194-1.944-2.86-2-5l1-5a31.147 31.147 0 0 0 2 2ZM455.5 312.5c1.086.12 1.753.787 2 2l-1 2c-.929-1.189-1.262-2.522-1-4ZM71.5 314.5c.838.342 1.172 1.008 1 2a70.915 70.915 0 0 0-2 4l-1-3c.14-1.53.806-2.53 2-3ZM457.5 320.5c1.277 1.194 1.944 2.86 2 5l-1 5a25.879 25.879 0 0 1-1-10ZM29.5 322.5c1.248.834 1.915 2.167 2 4l-1 4a16.868 16.868 0 0 1-1-8ZM71.5 324.5c1.086.12 1.753.787 2 2l-1 2c-.929-1.189-1.262-2.522-1-4ZM207.5 324.5c1.086.12 1.753.787 2 2l-1 2c-.929-1.189-1.262-2.522-1-4ZM502.5 329.5l-1 2c-1.493-.812-2.16-2.145-2-4l1-3a112.33 112.33 0 0 0 2 5ZM75.5 329.5v1c.262 1.478-.071 2.811-1 4l-1-2.5c.184-1.376.85-2.209 2-2.5ZM205.5 329.5c.997-.03 1.664.47 2 1.5-.987 1.872-1.654 1.705-2-.5v-1ZM455.5 333.5c2.061 1.251 2.394 2.918 1 5-.929-1.189-1.262-2.522-1-4v-1ZM499.5 336.5v1c-.997.03-1.664-.47-2-1.5.987-1.872 1.654-1.705 2 .5ZM31.5 341.5l-1-2a44.093 44.093 0 0 0 2-3c1.394 2.082 1.061 3.749-1 5ZM75.5 336.5c1.837.139 2.17.806 1 2-.797-.457-1.13-1.124-1-2ZM247.5 336.5c1.312 2.243 1.978 4.91 2 8l-1 8a64.873 64.873 0 0 1-1-16Z"/><path style="opacity:1" fill="#a8092d" d="M307.5 339.5c-1.713 1.135-2.38 2.802-2 5-1.424-2.015-2.09-4.348-2-7 1.88-.271 3.213.396 4 2Z"/><path style="opacity:1" fill="#af0a2f" d="M495.5 338.5c1.837.139 2.17.806 1 2-.798-.457-1.131-1.124-1-2ZM79.5 339.5c.219 1.175-.114 2.175-1 3-1.298-1.552-.965-2.552 1-3Z"/><path style="opacity:1" fill="#af092f" d="M307.5 339.5c.667 0 1 .333 1 1 .412 2.473-.588 3.806-3 4-.38-2.198.287-3.865 2-5Z"/><path style="opacity:1" fill="#af0a2f" d="M453.5 339.5c.997-.03 1.664.47 2 1.5-.987 1.872-1.654 1.705-2-.5v-1ZM33.5 347.5v-1c-.13-.876.203-1.543 1-2 1.298 1.552.965 2.552-1 3ZM83.5 345.5v1c.13.876-.203 1.543-1 2-1.298-1.552-.965-2.552 1-3ZM35.5 348.5c1.837.139 2.17.806 1 2-.797-.457-1.13-1.124-1-2ZM307.5 348.5c1.086.12 1.753.787 2 2l-1 2c-.929-1.189-1.262-2.522-1-4ZM491.5 352.5c0 .667-.333 1-1 1-1.276-.886-1.276-1.886 0-3 .798.457 1.131 1.124 1 2ZM328.5 353.5h1c.03.997-.47 1.664-1.5 2-1.872-.987-1.705-1.654.5-2ZM332.5 355.5h1c.03.997-.47 1.664-1.5 2-1.872-.987-1.705-1.654.5-2ZM309.5 356.5c1.086.12 1.753.787 2 2l-1 2c-.929-1.189-1.262-2.522-1-4ZM336.5 357.5h1c.03.997-.47 1.664-1.5 2-1.872-.987-1.705-1.654.5-2ZM341.5 359.5c-.64 1.832-1.64 2.165-3 1 .825-.886 1.825-1.219 3-1ZM42.5 363.5c-.667 0-1-.333-1-1-.13-.876.203-1.543 1-2 1.276 1.114 1.276 2.114 0 3ZM485.5 360.5l-2 3c-1.218-1.832-.551-2.832 2-3ZM342.5 361.5c1.837.139 2.17.806 1 2-.798-.457-1.131-1.124-1-2ZM348.5 363.5c1.837.139 2.17.806 1 2-.798-.457-1.131-1.124-1-2ZM427.5 363.5c1.175-.219 2.175.114 3 1-1.552 1.298-2.552.965-3-1ZM249.5 364.5c1.193.47 1.86 1.47 2 3l-1 3a9.86 9.86 0 0 1-1-6ZM311.5 371.5l-1-2a112.33 112.33 0 0 0 2-5l1 3c.16 1.855-.507 3.188-2 4ZM357.5 364.5l2 1c-1.251 2.061-2.918 2.394-5 1a44.093 44.093 0 0 0 3-2ZM424.5 365.5c1.837.139 2.17.806 1 2-.798-.457-1.131-1.124-1-2ZM364.5 366.5a5.727 5.727 0 0 1 3 1c-1.251 2.061-2.918 2.394-5 1a31.147 31.147 0 0 0 2-2ZM110.5 367.5h1c.03.997-.47 1.664-1.5 2-1.872-.987-1.705-1.654.5-2ZM164.5 367.5c1.837.139 2.17.806 1 2-.798-.457-1.131-1.124-1-2ZM418.5 367.5c1.837.139 2.17.806 1 2-.798-.457-1.131-1.124-1-2Z"/><path style="opacity:1" fill="#af092f" d="M263.5 389.5c.667 0 1 .333 1 1v3h-55c-.331-8.36.002-16.693 1-25a133.155 133.155 0 0 1 1 23c16.337.167 32.67 0 49-.5.744-1.039 1.744-1.539 3-1.5Z"/><path style="opacity:1" fill="#af0a2f" d="M374.5 368.5c.992-.172 1.658.162 2 1-.47 1.193-1.47 1.86-3 2l-3-1a71.254 71.254 0 0 0 4-2ZM410.5 368.5a71.254 71.254 0 0 0 4 2l-3 1c-1.855.16-3.188-.507-4-2a5.727 5.727 0 0 1 3-1ZM112.5 369.5c1.478-.262 2.811.071 4 1l-2 1c-1.213-.247-1.88-.914-2-2ZM156.5 369.5c1.478-.262 2.811.071 4 1l-2 1c-1.213-.247-1.88-.914-2-2ZM129.5 370.5c5.014 1.269 10.014 1.269 15 0a345.94 345.94 0 0 0 8 2c-10 1.333-20 1.333-30 0a246.697 246.697 0 0 0 7-2ZM382.5 371.5c7.363-.331 14.697.003 22 1l-11 1c-4.065-.011-7.732-.678-11-2ZM49.5 372.5c2 0 3 1 3 3a6.544 6.544 0 0 1-3-3ZM251.5 374.5c1.837.139 2.17.806 1 2-.798-.457-1.131-1.124-1-2ZM313.5 378.5c-.262-1.478.071-2.811 1-4l1 2c-.247 1.213-.914 1.88-2 2ZM315.5 387.5v-1c-.262-1.478.071-2.811 1-4 1.394 2.082 1.061 3.749-1 5ZM183.5 387.5h-1c-.876.131-1.543-.202-2-1 1.552-1.298 2.552-.965 3 1ZM179.5 389.5h-1c-.876.131-1.543-.202-2-1 1.552-1.298 2.552-.965 3 1ZM320.5 387.5c1.837.139 2.17.806 1 2-.798-.457-1.131-1.124-1-2ZM326.5 389.5c1.478-.262 2.811.071 4 1l-2 1c-1.213-.247-1.88-.914-2-2ZM440.5 391.5c-1.837-.139-2.17-.806-1-2 .798.457 1.131 1.124 1 2ZM82.5 391.5c1.837.139 2.17.806 1 2-.797-.457-1.13-1.124-1-2ZM168.5 393.5c-1.837-.139-2.17-.806-1-2 .798.457 1.131 1.124 1 2ZM334.5 391.5c1.478-.262 2.811.071 4 1l-2 1c-1.213-.247-1.88-.914-2-2ZM432.5 391.5c1.837.139 2.17.806 1 2-.798-.457-1.131-1.124-1-2ZM88.5 393.5c1.837.139 2.17.806 1 2-.797-.457-1.13-1.124-1-2ZM158.5 393.5c1.478-.262 2.811.071 4 1l-2 1c-1.213-.247-1.88-.914-2-2ZM342.5 393.5c1.478-.262 2.811.071 4 1l-2 1c-1.213-.247-1.88-.914-2-2ZM429.5 395.5l-2 1a44.093 44.093 0 0 0-3-2c2.082-1.394 3.749-1.061 5 1ZM94.5 397.5h-1c.812-1.493 2.145-2.16 4-2l3 1a9.86 9.86 0 0 1-6 1ZM150.5 395.5c1.478-.262 2.811.071 4 1l-2 1c-1.213-.247-1.88-.914-2-2ZM354.5 398.5c-.992.172-1.658-.162-2-1 .834-1.248 2.167-1.915 4-2l4 1a168.522 168.522 0 0 0-6 2ZM421.5 397.5a5.727 5.727 0 0 1-3 1 71.254 71.254 0 0 0-4-2l3-1c1.855-.16 3.188.507 4 2ZM106.5 400.5c-.992.172-1.658-.162-2-1 1.548-1.294 3.548-1.961 6-2l6 1a624.355 624.355 0 0 0-10 2ZM147.5 399.5a5.727 5.727 0 0 1-3 1 624.355 624.355 0 0 0-10-2 24.551 24.551 0 0 1 12-.5c.556.383.889.883 1 1.5ZM408.5 399.5c-.709.904-1.709 1.237-3 1a145.036 145.036 0 0 0-34 0l-6-1c.111-.617.444-1.117 1-1.5l21-.5c7.367.003 14.367.67 21 2Z"/><path style="opacity:1" fill="#a8092d" d="M371.5 400.5a145.036 145.036 0 0 1 34 0 173.368 173.368 0 0 1-34 0Z"/></svg>